<svg version="1.1" xmlns="http://www.w3.org/2000/svg" xmlns:xlink="http://www.w3.org/1999/xlink" width="36.10926" height="61" viewBox="0,0,36.10926,61"><g transform="translate(-224.16667,-267)"><g data-paper-data="{&quot;isPaintingLayer&quot;:true}" fill-rule="nonzero" stroke-linejoin="miter" stroke-miterlimit="10" stroke-dasharray="" stroke-dashoffset="0" style="mix-blend-mode: normal"><path d="M242.2213,327c-9.41901,0 -17.05463,-13.2076 -17.05463,-29.5c0,-16.2924 7.63562,-29.5 17.05463,-29.5c9.41901,0 17.05463,13.2076 17.05463,29.5c0,16.2924 -7.63562,29.5 -17.05463,29.5z" fill="#cacaca" stroke="#989898" stroke-width="2" stroke-linecap="butt"/><path d="M236.27849,292.65053l0.64236,-16.87727" fill="none" stroke="#ffb900" stroke-width="2" stroke-linecap="round"/><path d="M246.6591,276.02641l-0.0257,15.47084" fill="none" stroke="#ffb900" stroke-width="2" stroke-linecap="round"/><path d="M249.53251,301.66623c0.55788,0.21206 0.78758,0.60463 0.86972,0.97839c0.29091,0.04263 0.60367,0.21567 0.87573,0.64855c0.77154,1.22757 -0.32718,2.08958 -0.32718,2.08958l-1.46939,1.14866c-0.1321,0.13689 -0.26284,0.2772 -0.3925,0.42032c-0.93244,2.47423 -1.88261,4.97888 -3.42039,6.99499c-0.73085,0.95819 -1.33704,2.22783 -2.39279,2.66781c-2.27489,0.94806 -3.49008,-0.38479 -4.92437,-1.73656c-0.27495,-0.25912 -0.53288,-0.52262 -0.7762,-0.7903c-1.693,-0.20494 -3.29903,-0.84205 -4.43298,-1.93163c-1.81705,-1.74596 -2.58171,-4.42181 -4.05503,-6.47594c0,0 -0.83616,-1.17356 0.21421,-2.10778c1.05037,-0.93422 1.88654,0.23933 1.88654,0.23933c1.26645,1.78774 2.01694,4.16217 3.44678,5.79164c-0.64152,-1.26358 -1.24507,-2.58421 -1.97708,-3.95066c0,0 -0.68572,-1.28959 0.46853,-2.05571c1.15424,-0.76612 1.83995,0.52347 1.83995,0.52347c1.32912,2.51616 2.18481,4.71793 3.70315,6.79094c3.81661,-0.07752 5.53871,-2.77499 8.26833,-5.7956c0.28848,-0.85205 0.55792,-1.62721 0.81981,-2.2475l0.07171,-0.2651c0,0 0.43244,-1.42006 1.70345,-0.93692zM242.33411,313.80505c0.31477,-0.18408 0.6119,-0.42904 0.89316,-0.72298c-0.54536,0.30644 -1.14748,0.54859 -1.78235,0.72517c0.28835,0.13782 0.59178,0.17175 0.88919,-0.00219z" fill="#cacaca" stroke="none" stroke-width="0.5" stroke-linecap="butt"/><path d="M252.98818,303.27416c0.93961,1.07141 -0.01932,2.12121 -0.01932,2.12121l-1.1261,1.23277c-1.62927,1.81713 -3.38345,4.44557 -5.53964,5.48389c-5.31036,2.55723 -11.10861,-1.61943 -14.81391,-5.41881c0,0 -0.98764,-1.01606 -0.07823,-2.11952c0.90941,-1.10346 1.89705,-0.08739 1.89705,-0.08739c2.81456,2.90594 7.73778,6.94413 11.92246,4.87548c1.82455,-0.90194 3.3361,-3.31865 4.72413,-4.86668l1.13499,-1.24255c0,0 0.95894,-1.04981 1.89856,0.0216z" fill="#989898" stroke="none" stroke-width="0.5" stroke-linecap="butt"/><path d="M236.59951,294.92896c-0.86819,0 -1.57198,-4.3826 -1.57198,-9.78881c0,-5.40621 0.7038,-9.78881 1.57198,-9.78881c0.86819,0 1.57198,4.3826 1.57198,9.78881c0,5.40621 -0.7038,9.78881 -1.57198,9.78881z" fill="#989898" stroke="#989898" stroke-width="2" stroke-linecap="butt"/><path d="M246.18792,294.78137c-0.86819,0 -1.57198,-4.3826 -1.57198,-9.78881c0,-5.40621 0.7038,-9.78881 1.57198,-9.78881c0.86819,0 1.57198,4.3826 1.57198,9.78881c0,5.40621 -0.7038,9.78881 -1.57198,9.78881z" fill="#989898" stroke="#989898" stroke-width="2" stroke-linecap="butt"/><path d="M235.14809,278.33333c0,-0.82843 0.60108,-1.5 1.34256,-1.5c0.74148,0 1.34256,0.67157 1.34256,1.5c0,0.82843 -0.60108,1.5 -1.34256,1.5c-0.74148,0 -1.34256,-0.67157 -1.34256,-1.5z" fill="#ffffff" stroke="none" stroke-width="0.5" stroke-linecap="butt"/><path d="M244.39682,278.33333c0,-0.82843 0.60108,-1.5 1.34256,-1.5c0.74148,0 1.34256,0.67157 1.34256,1.5c0,0.82843 -0.60108,1.5 -1.34256,1.5c-0.74148,0 -1.34256,-0.67157 -1.34256,-1.5z" fill="#ffffff" stroke="none" stroke-width="0.5" stroke-linecap="butt"/></g></g></svg>