<svg version="1.1" xmlns="http://www.w3.org/2000/svg" xmlns:xlink="http://www.w3.org/1999/xlink" width="18.4426" height="61" viewBox="0,0,18.4426,61"><g transform="translate(-232.16671,-267.66667)"><g data-paper-data="{&quot;isPaintingLayer&quot;:true}" fill-rule="nonzero" stroke-linejoin="miter" stroke-miterlimit="10" stroke-dasharray="" stroke-dashoffset="0" style="mix-blend-mode: normal"><path d="M241.38802,327.66667c-4.5405,0 -8.2213,-13.2076 -8.2213,-29.5c0,-16.2924 3.6808,-29.5 8.2213,-29.5c4.5405,0 8.2213,13.2076 8.2213,29.5c0,16.2924 -3.6808,29.5 -8.2213,29.5z" fill="#ff0000" stroke="#bd0000" stroke-width="2" stroke-linecap="butt"/><path d="M238.52324,293.3172l0.30966,-16.87727" fill="none" stroke="#ffb900" stroke-width="2" stroke-linecap="round"/><path d="M243.5149,292.16391l0.01239,-15.47084" fill="none" stroke="#ffb900" stroke-width="2" stroke-linecap="round"/><path d="M236.08289,315.10762c0.05843,-0.6983 0.60367,-1.22253 1.37798,-1.55255c-0.16212,-0.21608 -0.31292,-0.4601 -0.44952,-0.73237c-0.87592,-1.74596 -1.24453,-4.42181 -1.95476,-6.47594c0,0 -0.40308,-1.17356 0.10326,-2.10778c0.50634,-0.93422 0.90942,0.23933 0.90942,0.23933c0.6105,1.78774 0.97228,4.16217 1.66154,5.79164c-0.30925,-1.26358 -0.6002,-2.58421 -0.95306,-3.95066c0,0 -0.33056,-1.28959 0.22585,-2.05571c0.55641,-0.76612 0.88696,0.52347 0.88696,0.52347c0.64071,2.51616 1.0532,4.71793 1.78513,6.79094c1.83982,-0.07752 2.66997,-2.77499 3.98581,-5.7956c0.13906,-0.85205 0.26895,-1.62721 0.39519,-2.2475l0.03457,-0.2651c0,0 0.20846,-1.42006 0.82116,-0.93692l0.00001,0.00002c0.26893,0.21206 0.37966,0.60463 0.41926,0.97839c0.14023,0.04263 0.29101,0.21567 0.42215,0.64855c0.37192,1.22757 -0.15772,2.08958 -0.15772,2.08958l-0.70833,1.14866c-0.06368,0.13689 -0.1267,0.2772 -0.1892,0.42032c-0.39807,2.19115 -0.80284,4.40616 -1.4051,6.2846c0.32368,0.13645 0.61262,0.3391 0.84985,0.59098c0.7361,0.43506 1.2298,1.23675 1.2298,2.15374c0,1.38071 -1.11929,2.5 -2.5,2.5c-0.36688,0 -0.71532,-0.07903 -1.02919,-0.221c-0.02355,0.00065 -0.04717,0.00099 -0.07088,0.00099c-0.5875,0 -1.12767,-0.20265 -1.55442,-0.54187c-1.69882,-0.07436 -3.46637,-0.86435 -3.98901,-2.43228z" fill="#ff0000" stroke="none" stroke-width="0.5" stroke-linecap="butt"/><path d="M241.44223,314.52171c-0.14336,0.17394 -0.33027,0.11893 -0.46927,-0.01889c0.30604,-0.17658 0.67282,-0.48263 0.93571,-0.78907c-0.13559,0.29394 -0.31471,0.62388 -0.46645,0.80796z" data-paper-data="{&quot;noHover&quot;:false,&quot;origItem&quot;:[&quot;Path&quot;,{&quot;applyMatrix&quot;:true,&quot;segments&quot;:[[[241.44235,314.47172],[0,0],[0.15174,-0.18408]],[[241.87291,313.74874],[-0.13559,0.29394],[-0.26289,0.30644]],[[241.01372,314.47391],[0.30604,-0.17658],[0.139,0.13782]],[[241.44236,314.47172],[-0.14336,0.17394],[0,0]]],&quot;closed&quot;:true,&quot;fillColor&quot;:[0,0,0,1]}]}" fill="#ff0000" stroke="none" stroke-width="0.5" stroke-linecap="butt"/><path d="M246.57824,303.94083c0.45295,1.07141 -0.00931,2.12121 -0.00931,2.12121l-0.54284,1.23277c-0.7854,1.81713 -1.63101,4.44557 -2.67042,5.48389c-2.55989,2.55723 -5.35498,-1.61943 -7.14114,-5.41881c0,0 -0.4761,-1.01606 -0.03771,-2.11952c0.43839,-1.10346 0.91449,-0.08739 0.91449,-0.08739c1.35678,2.90594 3.73004,6.94413 5.7473,4.87548c0.87954,-0.90194 1.60819,-3.31865 2.2773,-4.86668l0.54713,-1.24255c0,0 0.46227,-1.04981 0.91521,0.0216z" fill="#bd0000" stroke="none" stroke-width="0.5" stroke-linecap="butt"/><path d="M238.67799,295.59563c-0.41852,0 -0.75778,-4.3826 -0.75778,-9.78881c0,-5.40621 0.33927,-9.78881 0.75778,-9.78881c0.41852,0 0.75778,4.3826 0.75778,9.78881c0,5.40621 -0.33927,9.78881 -0.75778,9.78881z" fill="#ffb900" stroke="#bd0000" stroke-width="2" stroke-linecap="butt"/><path d="M243.30012,295.44804c-0.41852,0 -0.75778,-4.3826 -0.75778,-9.78881c0,-5.40621 0.33927,-9.78881 0.75778,-9.78881c0.41852,0 0.75778,4.3826 0.75778,9.78881c0,5.40621 -0.33927,9.78881 -0.75778,9.78881z" fill="#ffb900" stroke="#bd0000" stroke-width="2" stroke-linecap="butt"/><path d="M237.97831,279c0,-0.82843 0.28975,-1.5 0.64719,-1.5c0.35744,0 0.64719,0.67157 0.64719,1.5c0,0.82843 -0.28975,1.5 -0.64719,1.5c-0.35744,0 -0.64719,-0.67157 -0.64719,-1.5z" fill="#ff7b7b" stroke="none" stroke-width="0.5" stroke-linecap="butt"/><path d="M242.43674,279c0,-0.82843 0.28975,-1.5 0.64719,-1.5c0.35744,0 0.64719,0.67157 0.64719,1.5c0,0.82843 -0.28975,1.5 -0.64719,1.5c-0.35744,0 -0.64719,-0.67157 -0.64719,-1.5z" fill="#ff7b7b" stroke="none" stroke-width="0.5" stroke-linecap="butt"/></g></g></svg>