<svg version="1.1" xmlns="http://www.w3.org/2000/svg" xmlns:xlink="http://www.w3.org/1999/xlink" width="32.77592" height="61" viewBox="0,0,32.77592,61"><g transform="translate(-224.5,-266.66667)"><g data-paper-data="{&quot;isPaintingLayer&quot;:true}" fill-rule="nonzero" stroke-linejoin="miter" stroke-miterlimit="10" stroke-dasharray="" stroke-dashoffset="0" style="mix-blend-mode: normal"><path d="M240.88796,326.66667c-8.49854,0 -15.38796,-13.2076 -15.38796,-29.5c0,-16.2924 6.88943,-29.5 15.38796,-29.5c8.49854,0 15.38796,13.2076 15.38796,29.5c0,16.2924 -6.88943,29.5 -15.38796,29.5z" fill="#ff0000" stroke="#bd0000" stroke-width="2" stroke-linecap="butt"/><path d="M235.52591,292.3172l0.57959,-16.87727" fill="none" stroke="#ffb900" stroke-width="2" stroke-linecap="round"/><path d="M244.89208,275.69308l-0.02319,15.47084" fill="none" stroke="#ffb900" stroke-width="2" stroke-linecap="round"/><path d="M247.48468,301.3329c0.50336,0.21206 0.71061,0.60463 0.78473,0.97839c0.26248,0.04263 0.54468,0.21567 0.79015,0.64855c0.69614,1.22757 -0.29521,2.08958 -0.29521,2.08958l-1.32579,1.14866c-0.11919,0.13689 -0.23715,0.2772 -0.35414,0.42032c-0.84132,2.47423 -1.69863,4.97888 -3.08613,6.99499c-0.65943,0.95819 -1.20638,2.22783 -2.15895,2.66781c-2.05258,0.94806 -3.14901,-0.38479 -4.44314,-1.73656c-0.24808,-0.25912 -0.4808,-0.52262 -0.70035,-0.7903c-1.52755,-0.20494 -2.97663,-0.84205 -3.99977,-1.93163c-1.63948,-1.74596 -2.32941,-4.42181 -3.65875,-6.47594c0,0 -0.75445,-1.17356 0.19328,-2.10778c0.94772,-0.93422 1.70218,0.23933 1.70218,0.23933c1.14269,1.78774 1.81983,4.16217 3.10994,5.79164c-0.57883,-1.26358 -1.1234,-2.58421 -1.78387,-3.95066c0,0 -0.61871,-1.28959 0.42274,-2.05571c1.04144,-0.76612 1.66014,0.52347 1.66014,0.52347c1.19923,2.51616 1.9713,4.71793 3.34126,6.79094c3.44363,-0.07752 4.99744,-2.77499 7.46031,-5.7956c0.26029,-0.85205 0.5034,-1.62721 0.73969,-2.2475l0.0647,-0.2651c0,0 0.39018,-1.42006 1.53698,-0.93692zM240.98975,313.47172c0.28401,-0.18408 0.5521,-0.42904 0.80588,-0.72298c-0.49206,0.30644 -1.03534,0.54859 -1.60817,0.72517c0.26017,0.13782 0.53395,0.17175 0.80229,-0.00219z" fill="#ff0000" stroke="none" stroke-width="0.5" stroke-linecap="butt"/><path d="M250.60264,302.94083c0.84779,1.07141 -0.01743,2.12121 -0.01743,2.12121l-1.01605,1.23277c-1.47005,1.81713 -3.0528,4.44557 -4.99828,5.48389c-4.7914,2.55723 -10.02302,-1.61943 -13.36622,-5.41881c0,0 -0.89112,-1.01606 -0.07058,-2.11952c0.82054,-1.10346 1.71166,-0.08739 1.71166,-0.08739c2.53951,2.90594 6.9816,6.94413 10.75734,4.87548c1.64625,-0.90194 3.01008,-3.31865 4.26246,-4.86668l1.02407,-1.24255c0,0 0.86523,-1.04981 1.71302,0.0216z" fill="#bd0000" stroke="none" stroke-width="0.5" stroke-linecap="butt"/><path d="M235.81556,294.59563c-0.78335,0 -1.41836,-4.3826 -1.41836,-9.78881c0,-5.40621 0.63502,-9.78881 1.41836,-9.78881c0.78335,0 1.41836,4.3826 1.41836,9.78881c0,5.40621 -0.63502,9.78881 -1.41836,9.78881z" fill="#bd0000" stroke="#bd0000" stroke-width="2" stroke-linecap="butt"/><path d="M244.46694,294.44804c-0.78335,0 -1.41836,-4.3826 -1.41836,-9.78881c0,-5.40621 0.63502,-9.78881 1.41836,-9.78881c0.78335,0 1.41836,4.3826 1.41836,9.78881c0,5.40621 -0.63502,9.78881 -1.41836,9.78881z" fill="#bd0000" stroke="#bd0000" stroke-width="2" stroke-linecap="butt"/><path d="M234.50598,278c0,-0.82843 0.54234,-1.5 1.21136,-1.5c0.66902,0 1.21136,0.67157 1.21136,1.5c0,0.82843 -0.54234,1.5 -1.21136,1.5c-0.66902,0 -1.21136,-0.67157 -1.21136,-1.5z" fill="#ff7b7b" stroke="none" stroke-width="0.5" stroke-linecap="butt"/><path d="M242.85088,278c0,-0.82843 0.54234,-1.5 1.21136,-1.5c0.66902,0 1.21136,0.67157 1.21136,1.5c0,0.82843 -0.54234,1.5 -1.21136,1.5c-0.66902,0 -1.21136,-0.67157 -1.21136,-1.5z" fill="#ff7b7b" stroke="none" stroke-width="0.5" stroke-linecap="butt"/></g></g></svg>