<svg version="1.1" xmlns="http://www.w3.org/2000/svg" xmlns:xlink="http://www.w3.org/1999/xlink" width="27.10925" height="61" viewBox="0,0,27.10925,61"><g transform="translate(-227.5,-266.66667)"><g data-paper-data="{&quot;isPaintingLayer&quot;:true}" fill-rule="nonzero" stroke-linejoin="miter" stroke-miterlimit="10" stroke-dasharray="" stroke-dashoffset="0" style="mix-blend-mode: normal"><path d="M241.05463,326.66667c-6.93373,0 -12.55463,-13.2076 -12.55463,-29.5c0,-16.2924 5.6209,-29.5 12.55463,-29.5c6.93373,0 12.55463,13.2076 12.55463,29.5c0,16.2924 -5.6209,29.5 -12.55463,29.5z" fill="#fff101" stroke="#ffb900" stroke-width="2" stroke-linecap="butt"/><path d="M236.67987,292.3172l0.47287,-16.87727" fill="none" stroke="#ffb900" stroke-width="2" stroke-linecap="round"/><path d="M244.32148,275.69308l-0.01892,15.47084" fill="none" stroke="#ffb900" stroke-width="2" stroke-linecap="round"/><path d="M246.43671,301.3329c0.41068,0.21206 0.57977,0.60463 0.64024,0.97839c0.21415,0.04263 0.44439,0.21567 0.64466,0.64855c0.56796,1.22757 -0.24085,2.08958 -0.24085,2.08958l-1.08168,1.14866c-0.09724,0.13689 -0.19348,0.2772 -0.28893,0.42032c-0.68641,2.47423 -1.38587,4.97888 -2.51789,6.99499c-0.53801,0.95819 -0.98425,2.22783 -1.76143,2.66781c-1.67465,0.94806 -2.56919,-0.38479 -3.62504,-1.73656c-0.2024,-0.25912 -0.39227,-0.52262 -0.5714,-0.7903c-1.24629,-0.20494 -2.42855,-0.84205 -3.26331,-1.93163c-1.33761,-1.74596 -1.9005,-4.42181 -2.98508,-6.47594c0,0 -0.61554,-1.17356 0.15769,-2.10778c0.77322,-0.93422 1.38876,0.23933 1.38876,0.23933c0.93229,1.78774 1.48475,4.16217 2.53732,5.79164c-0.47225,-1.26358 -0.91655,-2.58421 -1.45541,-3.95066c0,0 -0.50479,-1.28959 0.3449,-2.05571c0.84968,-0.76612 1.35446,0.52347 1.35446,0.52347c0.97842,2.51616 1.60833,4.71793 2.72605,6.79094c2.80957,-0.07752 4.07728,-2.77499 6.08667,-5.7956c0.21236,-0.85205 0.41071,-1.62721 0.60349,-2.2475l0.05279,-0.2651c0,0 0.31834,-1.42006 1.25398,-0.93692zM241.13767,313.47172c0.23172,-0.18408 0.45044,-0.42904 0.6575,-0.72298c-0.40146,0.30644 -0.84471,0.54859 -1.31206,0.72517c0.21227,0.13782 0.43564,0.17175 0.65457,-0.00219z" fill="#fff101" stroke="none" stroke-width="0.5" stroke-linecap="butt"/><path d="M248.98058,302.94083c0.69169,1.07141 -0.01422,2.12121 -0.01422,2.12121l-0.82897,1.23277c-1.19937,1.81713 -2.4907,4.44557 -4.07796,5.48389c-3.90918,2.55723 -8.17752,-1.61943 -10.90514,-5.41881c0,0 -0.72704,-1.01606 -0.05758,-2.11952c0.66946,-1.10346 1.3965,-0.08739 1.3965,-0.08739c2.07192,2.90594 5.6961,6.94413 8.77663,4.87548c1.34313,-0.90194 2.45584,-3.31865 3.47763,-4.86668l0.83551,-1.24255c0,0 0.70592,-1.04981 1.39761,0.0216z" fill="#ffb900" stroke="none" stroke-width="0.5" stroke-linecap="butt"/><path d="M236.91619,294.59563c-0.63911,0 -1.1572,-4.3826 -1.1572,-9.78881c0,-5.40621 0.5181,-9.78881 1.1572,-9.78881c0.63911,0 1.1572,4.3826 1.1572,9.78881c0,5.40621 -0.5181,9.78881 -1.1572,9.78881z" fill="#ffb900" stroke="#ffb900" stroke-width="2" stroke-linecap="butt"/><path d="M243.97462,294.44804c-0.63911,0 -1.1572,-4.3826 -1.1572,-9.78881c0,-5.40621 0.5181,-9.78881 1.1572,-9.78881c0.63911,0 1.1572,4.3826 1.1572,9.78881c0,5.40621 -0.5181,9.78881 -1.1572,9.78881z" fill="#ffb900" stroke="#ffb900" stroke-width="2" stroke-linecap="butt"/><path d="M235.84774,278c0,-0.82843 0.44248,-1.5 0.98832,-1.5c0.54584,0 0.98832,0.67157 0.98832,1.5c0,0.82843 -0.44248,1.5 -0.98832,1.5c-0.54584,0 -0.98832,-0.67157 -0.98832,-1.5z" fill="#fff101" stroke="none" stroke-width="0.5" stroke-linecap="butt"/><path d="M242.65612,278c0,-0.82843 0.44248,-1.5 0.98832,-1.5c0.54584,0 0.98832,0.67157 0.98832,1.5c0,0.82843 -0.44248,1.5 -0.98832,1.5c-0.54584,0 -0.98832,-0.67157 -0.98832,-1.5z" fill="#fff101" stroke="none" stroke-width="0.5" stroke-linecap="butt"/></g></g></svg>