<svg version="1.1" xmlns="http://www.w3.org/2000/svg" xmlns:xlink="http://www.w3.org/1999/xlink" width="612.15336" height="548.72307" viewBox="0,0,612.15336,548.72307"><g transform="translate(79.16217,70.4886)"><g data-paper-data="{&quot;isPaintingLayer&quot;:true}" fill-rule="nonzero" stroke-linecap="butt" stroke-linejoin="miter" stroke-miterlimit="10" stroke-dasharray="" stroke-dashoffset="0" style="mix-blend-mode: normal"><path d="M-26.59975,-25.47713c2.33692,-3.27279 5.32784,-5.61 8.68789,-7.25651c3.65581,-2.0936 7.89107,-3.29037 12.40586,-3.29037c5.19583,-0.53889 10.44831,0.09706 15.67111,0c4.90779,-0.09121 25.72416,-0.99579 38.32889,-1c2.4833,-0.00083 4.96714,-0.01526 7.45139,-0.04019c-4.54747,-4.14801 -9.08376,-8.30812 -13.56108,-12.53541c-3.39269,-3.20324 -6.53841,-7.6547 -10.32024,-10.3737c-2.40304,-1.7277 -5.3992,-2.42694 -8.07793,-3.6855c-1.3386,-0.62892 -2.56209,-1.57639 -4.00118,-1.91756c-2.75368,-0.65282 -5.65691,0.19062 -8.48621,0.25378c-4.99875,0.11158 -9.99751,0.22315 -14.99626,0.33473c-8.28555,0.18494 -16.63473,0.08665 -24.90842,0.55452c-1.63558,0.09249 -3.25873,0.35324 -4.89427,0.4464c-1.27482,0.07261 -2.73459,-0.60506 -3.83032,0.05054c-0.93942,0.56207 -0.79004,2.04696 -1.297,3.01723c-1.47694,2.82677 -3.3921,4.6951 -3.58324,8.04921c-0.0804,1.41089 0.48518,2.78447 0.71217,4.1793c2.67686,16.44909 5.14607,32.93487 7.71884,49.4006c0.50542,3.23467 0.77615,6.51437 1.50997,9.705c0.26974,1.17285 2.91468,9.04077 2.97855,9.8973c0.34729,4.65748 -1.54974,10.75246 -2.24533,15.39079c-0.04451,0.29678 -1.4915,9.96928 -1.52873,10.11962c-0.89721,3.62289 -2.02792,7.1984 -3.27676,10.74889c4.76547,-3.28672 9.03662,-7.27989 13.54863,-10.91839c0.46735,-0.37688 -1.04234,-0.71974 -1.27325,-1.27394c-1.20401,-2.88962 -2.19921,-5.87523 -2.96978,-8.90933c-1.57571,-6.20435 3.0346,-15.30691 5.96978,-20.6742c0.78281,-1.43145 2.95108,-2.46657 2.70469,-4.07938c-0.01021,-0.06684 -0.02317,-0.13305 -0.03877,-0.19867c-2.7415,-1.61909 -5.14703,-3.7466 -7.08685,-6.25279c-3.27148,-4.22666 -5.21839,-9.53037 -5.21839,-15.28881c0,-3.13655 0.57762,-6.13819 1.63228,-8.90435c0.44467,-1.99787 1.0954,-3.89822 2.27397,-5.54877zM148.44118,-36.94806c31.44403,2.40935 62.88934,4.8058 94.34262,7.09124c-1.9727,-1.99283 -3.74792,-4.17257 -5.25586,-5.86138c-7.32026,0.56361 -14.86358,-0.11748 -22.20343,-0.28324c-11.66123,-0.26334 -23.32221,-0.53171 -34.98418,-0.75991c-8.33174,-0.16303 -16.66348,-0.32607 -24.99522,-0.4891c-6.90409,-0.1351 -13.6114,0.01091 -20.39841,-1.3342c-11.91024,-2.98741 -22.65134,-9.60576 -33.97994,-13.98447c-0.86568,-0.3346 -0.04473,1.85569 -0.05605,2.78372c-0.04246,3.48321 -0.60618,6.96442 -1.40018,10.35619c-0.1139,0.48654 -0.2245,0.97763 -0.33247,1.47264c16.44505,-0.28511 32.87777,-0.247 49.26312,1.0085zM311.994,-34.89901c2.63135,-1.55489 5.90557,-1.62431 8.74725,-2.74973c7.64695,-3.02848 17.47976,-7.89126 25.21884,-10.10171c6.74055,-1.92525 13.57096,-1.5369 19.93454,1.0834c1.60752,0.66192 3.80555,2.13087 5.92931,3.24177c3.97687,-0.61205 7.97694,-1.11133 11.92779,-1.99908c12.14123,-2.72809 25.1773,-8.33125 37.75939,-8.0996c4.96649,0.09144 10.22524,1.26078 15.15805,1.87746c14.90468,1.63046 29.80931,3.26128 44.71397,4.89196c6.88851,0.75365 13.25988,1.89155 19.97651,3.60062c4.24599,1.0804 6.41439,1.25232 10.13687,3.8651c5.36412,3.76502 7.87379,10.21513 12.67684,14.41285c2.78465,2.43371 5.99083,4.34917 8.81784,6.73354c-6.59201,6.52262 -14.35474,13.43537 -22.46359,18.08845c-3.75972,2.15742 -5.53339,3.45725 -8.91566,6.44062c-1.94236,1.71328 -4.63183,2.73367 -6.00686,4.92852c-0.55458,0.88523 -0.38908,2.11683 -0.98445,2.97516c-0.96806,1.39565 -2.58804,2.24504 -3.58852,3.61764c-0.99582,1.36621 -1.59965,5.04454 -2.41148,6.38236c-0.58855,0.96988 -1.57257,1.63563 -2.35886,2.45344l-3.76777,0.73223c0,0 -2.07204,0 -2.44338,-1.88637c-0.18286,0.20757 -0.36419,0.41501 -0.54389,0.62234c-4.24925,4.90257 -8.59842,11.26708 -15.2102,13.37083c-2.99517,0.95301 -8.11194,1.90633 -11.20323,1.85053c-2.13288,-0.0385 -4.79987,-1.38974 -7.0748,-1.45733c-12.02517,-0.3573 -28.80963,-1.11325 -40.52332,2.29486c-20.47872,5.9583 -43.98648,5.78627 -61.34857,18.17325c-2.66388,1.90054 -0.31856,10.34747 -0.51718,13.22752c-0.2431,3.52497 -6.79528,13.38555 -10.13544,15.30437c-1.38956,0.79826 -3.03117,1.06636 -4.46544,1.78116c-2.94366,1.46705 -5.99413,4.01791 -9.44081,3.76571c-2.60032,-0.19027 -5.1756,-0.68398 -7.72288,-1.24008c-0.94018,-0.20525 -3.13642,-1.79314 -4.00689,-1.63512c-5.81198,1.05506 -11.27799,3.12812 -17.36399,3.32833c-10.61553,0.34922 -21.12096,-2.65464 -31.78049,-3c-4.79066,-0.15521 -11.68555,0.49876 -17.11858,-0.30593c-17.53722,-2.59745 -34.38372,-4.71341 -51.77874,-8.13561c-12.27236,-2.41439 -30.38311,-9.668 -37.137,-11.26788c-0.61862,-0.14654 -4.0654,1.39851 -5.60726,1.82851c-9.53428,2.65896 -18.43244,5.7956 -28.39925,4.13447c-12.05508,-2.00918 -23.11884,-7.72087 -34.71728,-11.39937c-8.65996,-2.74654 -17.40421,-5.28103 -26.2738,-7.24794c-5.27771,-1.17039 -10.9315,-3.06088 -16.13804,-1.60625c-1.64111,0.4585 -2.25991,2.5729 -3.58557,3.64345c-7.14183,5.76741 -14.83653,10.87046 -21.63875,17.03476c-0.48912,0.44325 1.11927,0.7001 1.67426,1.05743c1.14847,0.73944 2.17139,1.66358 3.17817,2.5867c2.30505,2.11351 4.82836,4.3531 6.48592,7.03835c4.75311,7.70003 8.02151,19.22236 5.1432,28.26845c-0.88519,2.78204 -2.36455,5.74064 -4.1432,8.01019c-1.05111,1.3412 -3.33623,2.17641 -3.32797,3.8804c0.02041,4.20886 2.43313,15.18629 1.49483,18.97414c-0.79034,3.19057 -3.82887,5.89931 -3.60443,9.17864c0.24657,3.60271 0.34612,7.22754 0.89967,10.796c1.5763,10.16171 9.54323,15.08254 9.53007,26.92905c-0.00591,5.3179 -1.06733,11.48422 -3.21675,16.33291c-0.89379,2.01621 -3.27894,3.60516 -3.16928,5.80788c0.83209,16.7132 1.65413,33.47566 4.03542,50.03926c1.84561,12.83755 8.71367,44.23603 12.788,65.17752c5.92578,30.45768 12.43468,61.25817 17.97281,91.78872c0.30627,1.68838 0.28399,3.46323 0.88148,5.07178c0.16467,0.44333 0.9768,0.30743 1.23022,0.70672c2.67426,4.21356 6.14466,8.16732 7.45777,12.98204c0.9959,3.65164 0.11398,7.659 -0.82864,11.32476c-3.62613,14.10161 -19.82611,24.91172 -34.00243,23.50631c-1.08532,-0.1076 -1.79849,-1.29698 -2.8371,-1.62982c-1.03861,-0.33284 -2.31026,0.22049 -3.25596,-0.32279c-15.68413,-9.01003 -15.04815,-26.89664 -17.8124,-42.72028c-0.4763,-2.72651 -0.71688,-5.52448 -1.59867,-8.14806c-0.13362,-0.39755 -0.52451,0.65651 -0.81883,0.9553c-1.5477,1.57119 -2.69242,3.60183 -4.52829,4.82397c-4.04486,2.69265 -13.59178,4.54175 -17.20712,4.32779c-2.08386,-0.12333 -3.69568,-1.96959 -5.65352,-2.69384c-1.95784,-0.72425 -4.38316,-0.37143 -6.0456,-1.63395c-2.88422,-2.19038 -8.92941,-9.80738 -10.24814,-14.48415c-0.59854,-2.12268 -0.28588,-4.40419 -0.29874,-6.6096c-0.08983,-15.41301 -0.25314,-31.07873 0.0489,-46.48905c0.33654,-17.17031 0.52193,-34.55558 2.00672,-51.66524c1.373,-15.82154 3.4523,-31.59502 4.17865,-47.45941c0.14027,-3.06359 -2.03598,-5.79928 -2.72377,-8.78796c-2.4599,-10.68918 -6.95727,-19.57049 -5.11988,-30.5046c0.82394,-4.90316 2.73339,-8.50939 5.07179,-11.91894c-0.27971,-5.94864 -1.01741,-11.75963 -0.91102,-17.71494c-1.02233,-0.18523 -1.82821,-0.99213 -2.01192,-2.01498l-0.9715,-4.85749c-0.02438,-0.06178 -1.89779,-9.54216 -1.93359,-9.68388c-2.00485,-7.93758 -4.6639,-15.95692 -7.27199,-23.71837c-3.60024,-10.71398 -7.65125,-21.36134 -10.22345,-32.32869c-0.81619,-0.53049 -1.64605,-1.02679 -2.49613,-1.4735c-7.38263,-3.8796 -18.37464,-8.41126 -20.76781,-17.38295c-0.97553,-3.65714 -1.79746,-7.3606 -2.42187,-11.09375c-0.7406,-4.42775 2.4168,-10.1949 5.44042,-13.63937c8.10015,-9.2276 19.51744,-12.79351 30.19329,-18.3587c0.26946,-0.77645 0.54024,-1.55325 0.81228,-2.33052c1.59404,-4.55439 3.72877,-9.25122 4.88821,-13.93297c1.15944,-4.68175 1.46332,-9.83199 2.17895,-14.60392c0.467,-3.11405 1.6965,-6.19259 1.46235,-9.33275c-0.23758,-3.18619 -2.14865,-6.03323 -2.86485,-9.14696c-0.02654,-0.1154 -1.54194,-9.82717 -1.57757,-10.05525c-2.05836,-13.17349 -4.11672,-26.34699 -6.17508,-39.52048c-0.71015,-4.54499 -2.64541,-10.56507 -2.30638,-15.13937c0.31483,-4.24781 2.14664,-6.72609 4.21741,-10.19521c0.94934,-1.5904 1.3277,-3.76312 2.90235,-4.73835c0.62609,-0.38776 9.97625,-1.24496 11.19327,-1.31378c8.3307,-0.47109 16.73655,-0.37504 25.07913,-0.56125c4.99875,-0.11158 9.99751,-0.22315 14.99626,-0.33473c0.1081,-0.00241 9.26934,-0.23013 9.61585,-0.15028c1.80726,0.41648 3.38978,1.50609 5.07841,2.27302c0.10865,0.04935 8.61772,3.96319 8.84248,4.12392c4.00054,2.86097 7.31166,7.45818 10.89297,10.8395c5.74956,5.4285 11.59631,10.74645 17.43919,16.07021c10.34361,-0.17726 20.69244,-0.48419 31.03777,-0.69826c0.60005,-2.45101 1.12073,-4.90411 1.45095,-7.34095c0.46617,-3.44018 -1.55678,-11.48238 4.27644,-12.2747c1.04373,-0.14177 9.21694,3.48244 10.64902,4.09622c8.17247,3.50266 16.73454,7.78803 25.37104,9.91931c11.07257,2.23696 23.10903,1.28642 34.39878,1.50734c22.97933,0.44965 46.06979,0.38308 69.01998,1.62622c2.44864,2.27881 4.71855,4.74885 7.22295,6.96623c1.67764,1.48537 3.24925,3.54471 5.45753,3.92462c3.08501,0.53074 6.26078,0.02092 9.39074,0.06908c4.99941,0.07691 9.99882,0.15383 14.99823,0.23074c8.33235,0.12819 16.66469,0.25638 24.99704,0.38457c0.96922,0.01491 1.96922,0.06038 2.9868,0.11765c2.2761,-2.34363 4.68208,-4.60838 7.48066,-6.26208zM434.494,-43.02401c3.12303,0.0767 6.7068,0.7191 9.62913,1.6932c1.65217,0.55072 4.21504,2.8825 5.4553,2.63027c6.13478,-1.24764 12.67555,-3.17078 19.27355,-4.39515c-10.92161,-1.19488 -21.84322,-2.38973 -32.7648,-3.58479c-4.75163,-0.59388 -9.82522,-1.74777 -14.61029,-1.84359c-5.76041,-0.11535 -11.64485,1.74137 -17.1671,3.12003c-4.78133,1.19369 -9.55397,2.47335 -14.34527,3.65043c14.85534,-0.2055 29.65306,-1.63573 44.52949,-1.2704zM505.1707,-31.32024c1.95315,5.14419 3.39175,7.29957 3.3233,12.29623c-0.08394,6.12747 -1.97132,11.66948 -4.86567,16.80047c2.68938,-1.75958 5.73514,-2.91855 8.39004,-4.81852c5.24882,-3.7563 9.58682,-9.27135 15.97844,-10.86353c-10.78773,-0.90099 -13.44876,-15.66037 -23.27899,-19.25747c-2.07578,-0.75958 -4.19375,-1.38572 -6.33996,-1.91209c3.01906,1.92188 5.52073,4.40445 6.79283,7.75491zM-23.28923,203.80833c0.42388,-0.64342 2.90944,-9.64278 3.18917,-11.26463c0.48624,-2.81921 -4.04708,-9.40356 -4.81999,-13.58432c-1.67296,-9.04921 -1.66251,-16.33581 -2.49959,-26.90726c-0.25645,-3.23862 -0.37891,-6.79809 0.30427,-9.98239c0.31681,-1.47666 1.99298,-2.94003 1.37375,-4.31751c-0.51765,-1.15151 -2.46643,-0.54182 -3.69288,-0.84142c-4.19823,-1.02555 -8.22376,-3.34193 -11.93389,-5.4975c-2.02197,-1.17476 -3.93533,-2.59467 -5.83039,-4.04664c3.30011,12.11104 8.09502,23.91584 11.74563,35.82652c1.98422,6.47382 4.10666,12.84351 5.43744,19.48671c0.32736,1.6342 1.13712,3.2436 0.98058,4.9029l0.08767,0.43835c0.21184,0.16911 0.39558,0.37194 0.54309,0.60036l1.97849,2.96774l-0.23884,0.15923l0.55144,0.50307c0.14354,4.98389 0.26196,9.98651 0.41192,14.99303c0.80562,-1.09319 1.61606,-2.22787 2.41212,-3.43623zM482.72623,23.20822c0.81572,-0.76871 1.32384,-1.55644 1.70061,-2.36706c-0.6198,0.65173 -1.232,1.30063 -1.83373,1.94735z" fill="#000000" stroke="none" stroke-width="0.5"/><path d="M195.494,362.97599v-277h189v277z" fill="#adadad" stroke="#484848" stroke-width="2.5"/><path d="M-3.50901,360.97599v-311h224.00601v311z" fill="#adadad" stroke="#484848" stroke-width="2.5"/><path d="M326.494,362.97599v-336h174.01802v336z" fill="#adadad" stroke="#484848" stroke-width="2.5"/><path d="M12.494,154.97599v-80h85v80z" fill="#ff7b00" stroke="#ffd200" stroke-width="2.5"/><path d="M120.494,154.97599v-80h85v80z" fill="#ff7b00" stroke="#ffd200" stroke-width="2.5"/><path d="M120.494,260.97598v-80h85v80z" fill="#ff7b00" stroke="#ffd200" stroke-width="2.5"/><path d="M11.494,261.97598v-80h85v80z" fill="#ff7b00" stroke="#ffd200" stroke-width="2.5"/><path d="M12.494,366.97599v-80h85v80z" fill="#ff7b00" stroke="#ffd200" stroke-width="2.5"/><path d="M120.494,366.97599v-80h85v80z" fill="#ff7b00" stroke="#ffd200" stroke-width="2.5"/><path d="M342.494,126.97599v-80h85v80z" fill="#ff7b00" stroke="#ffd200" stroke-width="2.5"/><path d="M445.494,126.97599v-80h85v80z" fill="#ff7b00" stroke="#ffd200" stroke-width="2.5"/><path d="M342.494,235.97599v-80h85v80z" fill="#ff7b00" stroke="#ffd200" stroke-width="2.5"/><path d="M343.494,341.97599v-80h85v80z" fill="#ff7b00" stroke="#ffd200" stroke-width="2.5"/><path d="M446.494,235.97599v-80h85v80z" fill="#ff7b00" stroke="#ffd200" stroke-width="2.5"/><path d="M446.494,342.97599v-80h85v80z" fill="#ff7b00" stroke="#ffd200" stroke-width="2.5"/><path d="M228.494,182.97599v-80h85v80z" fill="#ff7b00" stroke="#ffd200" stroke-width="2.5"/><path d="M229.494,306.97598v-80h85v80z" fill="#ff7b00" stroke="#ffd200" stroke-width="2.5"/><path d="M231.494,427.97599v-80h85v80z" fill="#ff7b00" stroke="#ffd200" stroke-width="2.5"/><path d="M89.494,-7.52401c0,28.44266 -24.62434,51.5 -55,51.5c-30.37566,0 -55,-23.05734 -55,-51.5c0,-28.44266 24.62434,-51.5 55,-51.5c30.37566,0 55,23.05734 55,51.5z" fill="#ffffff" stroke="#d9d9d9" stroke-width="2.5"/><path d="M14.997,8.988c-5.24671,0 -9.5,-4.02944 -9.5,-9c0,-4.97056 4.25329,-9 9.5,-9c5.24671,0 9.5,4.02944 9.5,9c0,4.97056 -4.25329,9 -9.5,9z" fill="#d0d0d0" stroke="#a4a4a4" stroke-width="2.5"/><path d="M60.50301,25.97899c-4.97056,0 -9,-4.02944 -9,-9c0,-4.97056 4.02944,-9 9,-9c4.97056,0 9,4.02944 9,9c0,4.97056 -4.02944,9 -9,9z" fill="#d0d0d0" stroke="#a4a4a4" stroke-width="2.5"/><path d="M59.994,-8.02401c-3.58985,0 -6.5,-2.46243 -6.5,-5.5c0,-3.03757 2.91015,-5.5 6.5,-5.5c3.58985,0 6.5,2.46243 6.5,5.5c0,3.03757 -2.91015,5.5 -6.5,5.5z" fill="#d0d0d0" stroke="#a4a4a4" stroke-width="2.5"/><path d="M26.497,35.98199c-4.41828,0 -8,-2.68629 -8,-6c0,-3.31371 3.58172,-6 8,-6c4.41828,0 8,2.68629 8,6c0,3.31371 -3.58172,6 -8,6z" fill="#d0d0d0" stroke="#a4a4a4" stroke-width="2.5"/></g></g></svg>