<svg version="1.1" xmlns="http://www.w3.org/2000/svg" xmlns:xlink="http://www.w3.org/1999/xlink" width="40.10926" height="61" viewBox="0,0,40.10926,61"><g transform="translate(-222.5,-267)"><g data-paper-data="{&quot;isPaintingLayer&quot;:true}" fill-rule="nonzero" stroke-linejoin="miter" stroke-miterlimit="10" stroke-dasharray="" stroke-dashoffset="0" style="mix-blend-mode: normal"><path d="M242.55463,327c-10.52358,0 -19.05463,-13.2076 -19.05463,-29.5c0,-16.2924 8.53105,-29.5 19.05463,-29.5c10.52358,0 19.05463,13.2076 19.05463,29.5c0,16.2924 -8.53105,29.5 -19.05463,29.5z" fill="#fff101" stroke="#ffb900" stroke-width="2" stroke-linecap="butt"/><path d="M236.6326,275.77326l-0.71769,16.87727" fill="none" stroke="#ffb900" stroke-width="2" stroke-linecap="round"/><path d="M247.51285,276.02641l-0.02871,15.47084" fill="none" stroke="#ffb900" stroke-width="2" stroke-linecap="round"/><path d="M250.72323,301.66623c0.6233,0.21206 0.87994,0.60463 0.97171,0.97839c0.32503,0.04263 0.67446,0.21567 0.97843,0.64855c0.86202,1.22757 -0.36555,2.08958 -0.36555,2.08958l-1.64171,1.14866c-0.14759,0.13689 -0.29366,0.2772 -0.43853,0.42032c-1.04179,2.47423 -2.10338,4.97888 -3.8215,6.99499c-0.81656,0.95819 -1.49384,2.22783 -2.67339,2.66781c-2.54167,0.94806 -3.89936,-0.38479 -5.50185,-1.73656c-0.30719,-0.25912 -0.59537,-0.52262 -0.86722,-0.7903c-1.89154,-0.20494 -3.68591,-0.84205 -4.95284,-1.93163c-2.03014,-1.74596 -2.88447,-4.42181 -4.53056,-6.47594c0,0 -0.93422,-1.17356 0.23933,-2.10778c1.17355,-0.93422 2.10778,0.23933 2.10778,0.23933c1.41497,1.78774 2.25347,4.16217 3.85099,5.79164c-0.71675,-1.26358 -1.39108,-2.58421 -2.20893,-3.95066c0,0 -0.76613,-1.28959 0.52347,-2.05571c1.2896,-0.76612 2.05572,0.52347 2.05572,0.52347c1.48499,2.51616 2.44102,4.71793 4.13742,6.79094c4.26419,-0.07752 6.18824,-2.77499 9.23796,-5.7956c0.32231,-0.85205 0.62335,-1.62721 0.91595,-2.2475l0.08012,-0.2651c0,0 0.48315,-1.42006 1.90321,-0.93692zM242.68067,313.80505c0.35168,-0.18408 0.68366,-0.42904 0.9979,-0.72298c-0.60931,0.30644 -1.28205,0.54859 -1.99137,0.72517c0.32217,0.13782 0.66118,0.17175 0.99347,-0.00219z" fill="#fff101" stroke="none" stroke-width="0.5" stroke-linecap="butt"/><path d="M254.58415,303.27416c1.0498,1.07141 -0.02159,2.12121 -0.02159,2.12121l-1.25816,1.23277c-1.82033,1.81713 -3.78023,4.44557 -6.18927,5.48389c-5.93311,2.55723 -12.41132,-1.61943 -16.55114,-5.41881c0,0 -1.10346,-1.01606 -0.0874,-2.11952c1.01606,-1.10346 2.11952,-0.08739 2.11952,-0.08739c3.14462,2.90594 8.64519,6.94413 13.32061,4.87548c2.03851,-0.90194 3.72732,-3.31865 5.27813,-4.86668l1.26809,-1.24255c0,0 1.0714,-1.04981 2.12121,0.0216z" fill="#ffb900" stroke="none" stroke-width="0.5" stroke-linecap="butt"/><path d="M236.27357,294.92896c-0.97,0 -1.75633,-4.3826 -1.75633,-9.78881c0,-5.40621 0.78634,-9.78881 1.75633,-9.78881c0.97,0 1.75633,4.3826 1.75633,9.78881c0,5.40621 -0.78634,9.78881 -1.75633,9.78881z" fill="#ffb900" stroke="#ffb900" stroke-width="2" stroke-linecap="butt"/><path d="M246.98642,294.78137c-0.97,0 -1.75633,-4.3826 -1.75633,-9.78881c0,-5.40621 0.78633,-9.78881 1.75633,-9.78881c0.97,0 1.75633,4.3826 1.75633,9.78881c0,5.40621 -0.78633,9.78881 -1.75633,9.78881z" fill="#ffb900" stroke="#ffb900" stroke-width="2" stroke-linecap="butt"/><path d="M234.65195,278.33333c0,-0.82843 0.67157,-1.5 1.5,-1.5c0.82843,0 1.5,0.67157 1.5,1.5c0,0.82843 -0.67157,1.5 -1.5,1.5c-0.82843,0 -1.5,-0.67157 -1.5,-1.5z" fill="#fff101" stroke="none" stroke-width="0.5" stroke-linecap="butt"/><path d="M244.98528,278.33333c0,-0.82843 0.67157,-1.5 1.5,-1.5c0.82843,0 1.5,0.67157 1.5,1.5c0,0.82843 -0.67157,1.5 -1.5,1.5c-0.82843,0 -1.5,-0.67157 -1.5,-1.5z" fill="#fff101" stroke="none" stroke-width="0.5" stroke-linecap="butt"/></g></g></svg>