<svg version="1.1" xmlns="http://www.w3.org/2000/svg" xmlns:xlink="http://www.w3.org/1999/xlink" width="7.4426" height="61" viewBox="0,0,7.4426,61"><g transform="translate(-236.83333,-267.33333)"><g data-paper-data="{&quot;isPaintingLayer&quot;:true}" fill-rule="nonzero" stroke-linejoin="miter" stroke-miterlimit="10" stroke-dasharray="" stroke-dashoffset="0" style="mix-blend-mode: normal"><path d="M240.55463,327.33333c-1.50293,0 -2.7213,-13.2076 -2.7213,-29.5c0,-16.2924 1.21837,-29.5 2.7213,-29.5c1.50293,0 2.7213,13.2076 2.7213,29.5c0,16.2924 -1.21837,29.5 -2.7213,29.5z" fill="#fff101" stroke="#ffb900" stroke-width="2" stroke-linecap="butt"/><path d="M239.70887,276.10659l-0.1025,16.87727" fill="none" stroke="#ffb900" stroke-width="2" stroke-linecap="round"/><path d="M241.26274,276.35974l-0.0041,15.47084" fill="none" stroke="#ffb900" stroke-width="2" stroke-linecap="round"/><path d="M241.72123,301.99956c0.08902,0.21206 0.12567,0.60463 0.13878,0.97839c0.04642,0.04263 0.09633,0.21567 0.13973,0.64855c0.12311,1.22757 -0.05221,2.08958 -0.05221,2.08958l-0.23446,1.14866c-0.02108,0.13689 -0.04194,0.2772 -0.06263,0.42032c-0.14878,2.47423 -0.3004,4.97888 -0.54577,6.99499c-0.11662,0.95819 -0.21334,2.22783 -0.3818,2.66781c-0.36299,0.94806 -0.55689,-0.38479 -0.78575,-1.73656c-0.04387,-0.25912 -0.08503,-0.52262 -0.12386,-0.7903c-0.27014,-0.20494 -0.52641,-0.84205 -0.70734,-1.93163c-0.28993,-1.74596 -0.41195,-4.42181 -0.64704,-6.47594c0,0 -0.13342,-1.17356 0.03418,-2.10778c0.1676,-0.93422 0.30102,0.23933 0.30102,0.23933c0.20208,1.78774 0.32183,4.16217 0.54998,5.79164c-0.10236,-1.26358 -0.19867,-2.58421 -0.31547,-3.95066c0,0 -0.10942,-1.28959 0.07476,-2.05571c0.18418,-0.76612 0.29359,0.52347 0.29359,0.52347c0.21208,2.51616 0.34862,4.71793 0.59089,6.79094c0.60899,-0.07752 0.88378,-2.77499 1.31933,-5.7956c0.04603,-0.85205 0.08902,-1.62721 0.13081,-2.2475l0.01144,-0.2651c0,0 0.069,-1.42006 0.27181,-0.93692zM240.57263,314.13838c0.05023,-0.18408 0.09764,-0.42904 0.14252,-0.72298c-0.08702,0.30644 -0.1831,0.54859 -0.2844,0.72517c0.04601,0.13782 0.09443,0.17175 0.14188,-0.00219z" fill="#fff101" stroke="none" stroke-width="0.5" stroke-linecap="butt"/><path d="M242.27263,303.60749c0.14993,1.07141 -0.00308,2.12121 -0.00308,2.12121l-0.17968,1.23277c-0.25997,1.81713 -0.53987,4.44557 -0.88393,5.48389c-0.84734,2.55723 -1.77253,-1.61943 -2.36376,-5.41881c0,0 -0.15759,-1.01606 -0.01248,-2.11952c0.14511,-1.10346 0.3027,-0.08739 0.3027,-0.08739c0.4491,2.90594 1.23467,6.94413 1.90239,4.87548c0.29113,-0.90194 0.53232,-3.31865 0.7538,-4.86668l0.1811,-1.24255c0,0 0.15301,-1.04981 0.30294,0.0216z" fill="#ffb900" stroke="none" stroke-width="0.5" stroke-linecap="butt"/><path d="M239.65759,295.26229c-0.13853,0 -0.25083,-4.3826 -0.25083,-9.78881c0,-5.40621 0.1123,-9.78881 0.25083,-9.78881c0.13853,0 0.25083,4.3826 0.25083,9.78881c0,5.40621 -0.1123,9.78881 -0.25083,9.78881z" fill="#ffb900" stroke="#ffb900" stroke-width="2" stroke-linecap="butt"/><path d="M241.18755,295.1147c-0.13853,0 -0.25083,-4.3826 -0.25083,-9.78881c0,-5.40621 0.1123,-9.78881 0.25083,-9.78881c0.13853,0 0.25083,4.3826 0.25083,9.78881c0,5.40621 -0.1123,9.78881 -0.25083,9.78881z" fill="#ffb900" stroke="#ffb900" stroke-width="2" stroke-linecap="butt"/><path d="M239.426,278.66666c0,-0.82843 0.09591,-1.5 0.21422,-1.5c0.11831,0 0.21422,0.67157 0.21422,1.5c0,0.82843 -0.09591,1.5 -0.21422,1.5c-0.11831,0 -0.21422,-0.67157 -0.21422,-1.5z" fill="#fff101" stroke="none" stroke-width="0.5" stroke-linecap="butt"/><path d="M240.90176,278.66666c0,-0.82843 0.09591,-1.5 0.21422,-1.5c0.11831,0 0.21422,0.67157 0.21422,1.5c0,0.82843 -0.09591,1.5 -0.21422,1.5c-0.11831,0 -0.21422,-0.67157 -0.21422,-1.5z" fill="#fff101" stroke="none" stroke-width="0.5" stroke-linecap="butt"/></g></g></svg>